<?xml version="1.0" encoding="utf-8"?>
<svg viewBox="22.522 15.211 455.399 316.343" width="455.399" height="316.343" xmlns="http://www.w3.org/2000/svg">
  <path d="M 178.861 433.673 C 135.298 433.673 95.649 410.792 75.982 375.522 C 73.299 375.661 70.712 375.683 68.341 375.683 C 8.254 375.683 -40.63 329.577 -40.63 272.922 C -40.626 241.363 -24.954 211.544 1.173 192.146 C -2.17 181.705 -3.889 170.712 -3.889 159.738 C -3.889 96.115 51.556 44.334 119.697 44.334 C 152.013 44.334 182.49 55.742 205.666 76.079 C 225.039 62.586 248.891 55.1 273.49 55.1 C 309.003 55.1 342.53 71.201 364.175 97.905 C 376.875 94.148 390.686 92.18 404.813 92.18 C 479.315 92.18 539.935 149.362 539.935 219.649 C 539.935 289.939 479.124 347.123 404.403 347.123 C 399.878 347.123 395.21 346.873 390.154 346.344 C 365.262 378.272 320.463 393.773 277.701 382.257 C 256.749 413.955 219.597 433.673 178.861 433.673 Z M 87.041 339.728 C 94.515 339.728 101.385 344.082 104.044 350.95 C 115.342 379.873 145.409 399.319 178.861 399.319 C 210.984 399.319 239.842 381.64 252.349 354.224 C 254.283 350.011 257.891 346.71 262.413 345.039 C 266.962 343.366 271.992 343.485 276.392 345.385 C 311.71 360.245 348.84 347.397 365.431 319.388 C 369.184 313 376.875 309.542 384.397 310.87 C 392.309 312.2 398.668 312.794 404.377 312.794 C 459.093 312.794 503.627 271.024 503.627 219.676 C 503.627 168.329 459.288 126.555 404.791 126.555 C 390.277 126.555 376.467 129.281 364.856 134.433 C 356.338 138.259 346.129 135.215 341.412 127.426 C 327.239 104.021 301.211 89.477 273.467 89.477 C 252.229 89.477 231.815 97.583 217.52 111.781 C 210.623 118.606 199.256 118.906 192.021 112.448 C 191.393 111.876 190.477 110.958 189.917 110.339 C 172.794 90.234 147.224 78.689 119.697 78.689 C 71.561 78.689 32.395 115.059 32.395 159.738 C 32.395 170.756 34.913 181.818 39.628 191.666 C 43.501 199.728 40.285 209.23 32.206 213.651 C 9.658 225.994 -4.346 248.711 -4.346 272.922 C -4.346 310.617 28.261 341.308 68.341 341.308 C 74.801 341.308 79.203 340.941 83.098 340.116 C 84.427 339.865 85.757 339.728 87.041 339.728 Z" style="" transform="matrix(0.780929, -0.005031, 0.005185, 0.805012, 54.02151, -17.761744)"/>
  <g id="_x33_0" transform="matrix(3.228215, 0, 0, 2.637725, 201.776183, 156.669641)" style=""/>
  <g id="_x32_9" transform="matrix(3.228215, 0, 0, 2.637725, 201.776183, 156.669641)" style=""/>
  <g id="_x32_8" transform="matrix(3.228215, 0, 0, 2.637725, 201.776183, 156.669641)" style=""/>
  <g id="_x32_7" transform="matrix(3.228215, 0, 0, 2.637725, 201.776183, 156.669641)" style=""/>
  <g id="_x32_6" transform="matrix(3.228215, 0, 0, 2.637725, 201.776183, 156.669641)" style=""/>
  <g id="_x32_5" transform="matrix(3.228215, 0, 0, 2.637725, 201.776183, 156.669641)" style=""/>
  <g id="_x32_4" transform="matrix(3.228215, 0, 0, 2.637725, 201.776183, 156.669641)" style=""/>
  <g id="_x32_3" transform="matrix(3.228215, 0, 0, 2.637725, 201.776183, 156.669641)" style=""/>
  <g id="_x32_2" transform="matrix(3.228215, 0, 0, 2.637725, 201.776183, 156.669641)" style=""/>
  <g id="_x32_1" transform="matrix(3.228215, 0, 0, 2.637725, 201.776183, 156.669641)" style=""/>
  <g id="_x32_0" transform="matrix(3.228215, 0, 0, 2.637725, 201.776183, 156.669641)" style=""/>
  <g id="_x31_8" transform="matrix(3.228215, 0, 0, 2.637725, 201.776183, 156.669641)" style=""/>
  <g id="_x31_7" transform="matrix(3.228215, 0, 0, 2.637725, 201.776183, 156.669641)" style=""/>
  <g id="_x31_6" transform="matrix(3.228215, 0, 0, 2.637725, 201.776183, 156.669641)" style=""/>
  <g id="_x31_5" transform="matrix(3.228215, 0, 0, 2.637725, 201.776183, 156.669641)" style=""/>
  <g id="_x31_4" transform="matrix(3.228215, 0, 0, 2.637725, 201.776183, 156.669641)" style=""/>
  <g id="_x31_3" transform="matrix(3.228215, 0, 0, 2.637725, 201.776183, 156.669641)" style=""/>
  <g id="_x31_2" transform="matrix(3.228215, 0, 0, 2.637725, 201.776183, 156.669641)" style=""/>
  <g id="_x31_1" transform="matrix(3.228215, 0, 0, 2.637725, 201.776183, 156.669641)" style=""/>
  <g id="_x31_0" transform="matrix(6.860139, 0, 0, 5.367906, 129.472629, 80.419808)" style="">
    <path d="M27.515,6.743l-6-3.6c-0.027-0.016-0.057-0.024-0.086-0.037c-0.397-0.238-0.91-0.195-1.239,0.157l-8.419,9.021l-4.64-4.254   c-0.306-0.28-0.754-0.341-1.123-0.157L3.597,9.078C3.314,9.219,3.115,9.484,3.06,9.795s0.038,0.629,0.253,0.859L8.302,16   l-4.989,5.346c-0.215,0.23-0.309,0.549-0.253,0.859s0.255,0.576,0.537,0.717l2.411,1.206c0.142,0.071,0.295,0.105,0.447,0.105   c0.229,0,0.457-0.079,0.641-0.232l4.879-4.066l8.215,8.802c0.197,0.211,0.464,0.318,0.731,0.318c0.183,0,0.359-0.067,0.52-0.167   c0.024-0.012,0.05-0.017,0.073-0.031l6-3.6C27.815,25.077,28,24.751,28,24.4V7.6C28,7.249,27.815,6.923,27.515,6.743z    M6.317,22.046l-0.629-0.314l3.981-4.266l0.938,1.005L6.317,22.046z M20,25.602L5.688,10.268l0.599-0.299L20,22.54V25.602z    M20,19.826l-3.759-3.446L20,13.248V19.826z M20,10.644l-5.247,4.372l-1.507-1.382L20,6.398V10.644z M26,23.833l-4,2.4V5.766l4,2.4   V23.833z"/>
  </g>
  <g id="_x39_" transform="matrix(3.228215, 0, 0, 2.637725, 201.776183, 156.669641)" style=""/>
  <g id="_x38_" transform="matrix(3.228215, 0, 0, 2.637725, 201.776183, 156.669641)" style=""/>
  <g id="_x37_" transform="matrix(3.228215, 0, 0, 2.637725, 201.776183, 156.669641)" style=""/>
  <g id="_x36_" transform="matrix(3.228215, 0, 0, 2.637725, 201.776183, 156.669641)" style=""/>
  <g id="_x35_" transform="matrix(3.228215, 0, 0, 2.637725, 201.776183, 156.669641)" style=""/>
  <g id="_x34_" transform="matrix(3.228215, 0, 0, 2.637725, 201.776183, 156.669641)" style=""/>
  <g id="_x33_" transform="matrix(3.228215, 0, 0, 2.637725, 201.776183, 156.669641)" style=""/>
  <g id="_x32_" transform="matrix(3.228215, 0, 0, 2.637725, 201.776183, 156.669641)" style=""/>
  <g id="_x31_" transform="matrix(3.228215, 0, 0, 2.637725, 201.776183, 156.669641)" style=""/>
  <g id="Guides" transform="matrix(3.228215, 0, 0, 2.637725, 201.776183, 156.669641)" style=""/>
</svg>